# xmcd CD database file
#
# Track frame offsets:
#	150
#	15315
#	29053
#	41642
#	53537
#	69838
#	85737
#	101697
#	117512
#	130346
#	143990
#	158549
#	173299
#	187506
#	201354
#	215732
#	229838
#	244227
#	257676
#	273015
#	287463
#
# Disc length: 4035 seconds
#
# Revision: 0
# Processed by: cddbd v1.5.2PL0 Copyright (c) Steve Scherf et al.
# Submitted via: CDex 1.70beta2
#
DISCID=190fc115
DTITLE=Jack Teagarden - Giants of Jazz Disc 1
DYEAR=1900
DGENRE=Jazz
TTITLE0=She’s a Great, Great Girl: Roger Wolfe Kahn and His Orchestra 
TTITLE1=Makin’ Friends: Eddie Condon and His Footwarmers
TTITLE2=Digga Digga Doo: Goody and His Good Timers
TTITLE3=Bugle Call Rag: Dixie Daisies
TTITLE4=I’m Gonna Stomp, Mr. Henry Lee: Eddie’s Hot Shots
TTITLE5=That’s a Serious Thing: Eddie Condon’s Hot Shots
TTITLE6=That’s a Serious Thing: Eddie’s Hot Shots
TTITLE7=My Kinda Love: Ben Pollack and His Park Central Orchestra 
TTITLE8=It’s Tight Like That: Lou Connor’s Collegians
TTITLE9=Makin’ Friends: Kentucky Grasshoppers
TTITLE10=It’s So Good: Gil Rodin’s Boys
TTITLE11=Basin Street Blues: Louisiana Rhythm Kings
TTITLE12=Tailspin Blues: Mound City Blue Blowers
TTITLE13=Never Had a Reason to Believe in You: Mound City Blue Blowers 
TTITLE14=After You’ve Gone: Red Nichols and His Five Pennies 
TTITLE15=If I Could Be with You: Ben Pollack and His Orchestra
TTITLE16=The Sheik of Araby: Red Nichols and His Five Pennies 
TTITLE17=Beale Street Blues: The Charleston Chasers under the Direction of Bennie Goodman 
TTITLE18=That’s What I Like About You: Jack Teagarden and His Orchestra 
TTITLE19=Chances Are: Roy Carroll and His Sands Point Orchestra 
TTITLE20=I Got the Ritz from the One I Love: Jack Teagarden and His Orchestra 
EXTD=
EXTT0=
EXTT1=
EXTT2=
EXTT3=
EXTT4=
EXTT5=
EXTT6=
EXTT7=
EXTT8=
EXTT9=
EXTT10=
EXTT11=
EXTT12=
EXTT13=
EXTT14=
EXTT15=
EXTT16=
EXTT17=
EXTT18=
EXTT19=
EXTT20=
PLAYORDER=
